#Comment line ignore any data following # character 
#Hierarchical Translation and Rotation (.htr) file 
[Header]	
#Header keywords are followed by a single value 
FileType HTR		#Single word string
DataType HTRS		#Translation followed by rotation and scale data
FileVersion 1		#integer
NumSegments 64		#integer
NumFrames 3		#integer
DataFrameRate 30		#integer, data frame rate in this file
EulerRotationOrder ZYX
CalibrationUnits mm
RotationUnits Degrees
GlobalAxisofGravity Y
BoneLengthAxis Y
ScaleFactor 1.00
[SegmentNames&Hierarchy]
#CHILD	PARENT
Pinger_Root GLOBAL
Pelvis Pinger_Root
L_Hip Pelvis
R_Hip Pelvis
Rear_Leg01 Pelvis
Spine1 Pelvis
L_Leg01 L_Hip
L_Leg02 L_Leg01
L_Leg03 L_Leg02
L_Foot L_Leg03
L_Toe1_01 L_Foot
L_Toe2_01 L_Foot
L_Toe3_01 L_Foot
planeAlignerLeft L_Foot
L_Toe1_02 L_Toe1_01
L_Toe1_03 L_Toe1_02
L_Toe2_02 L_Toe2_01
L_Toe2_03 L_Toe2_02
L_Toe3_02 L_Toe3_01
L_Toe3_03 L_Toe3_02
planeLockWeightLeft planeAlignerLeft
R_Leg01 R_Hip
R_Leg02 R_Leg01
R_Leg03 R_Leg02
R_Foot R_Leg03
planeAlignerRight R_Foot
R_Toe1_01 R_Foot
R_Toe2_01 R_Foot
R_Toe3_01 R_Foot
planeLockWeightRight planeAlignerRight
R_Toe1_02 R_Toe1_01
R_Toe1_03 R_Toe1_02
R_Toe2_02 R_Toe2_01
R_Toe2_03 R_Toe2_02
R_Toe3_02 R_Toe3_01
R_Toe3_03 R_Toe3_02
Rear_Leg02 Rear_Leg01
Rear_Leg03 Rear_Leg02
Rear_Leg04 Rear_Leg03
Rear_Foot Rear_Leg04
planeAlignerCenter Rear_Foot
Rear_Toe1_01 Rear_Foot
Rear_Toe2_01 Rear_Foot
Rear_Toe3_01 Rear_Foot
planeLockWeightCenter planeAlignerCenter
Rear_Toe1_02 Rear_Toe1_01
Rear_Toe1_03 Rear_Toe1_02
Rear_Toe2_02 Rear_Toe2_01
Rear_Toe2_03 Rear_Toe2_02
Rear_Toe3_02 Rear_Toe3_01
Rear_Toe3_03 Rear_Toe3_02
Back_Bone Spine1
Head Spine1
Motor_Bone Back_Bone
Ping_Mechanism Back_Bone
BN_LookIK Head
bottomMouth Head
L_Mouth01 Head
L_mouthFront Head
mouthGun Head
R_Mouth01 Head
R_mouthFront Head
TopMouth Head
weapon_bone Head
[BasePosition]
#SegmentName Tx, Ty, Tz, Rx, Ry, Rz, BoneLength
Pinger_Root 0.000000 0.000000 0.000000 -90.000000 0.000000 0.000000 10.000000 
Pelvis 0.000000 0.000000 0.000000 0.000000 0.000000 0.000000 10.000000 
L_Hip 0.000000 0.000000 0.000000 0.000000 0.000000 0.000000 10.000000 
R_Hip 0.000000 0.000000 0.000000 0.000000 0.000000 0.000000 10.000000 
Rear_Leg01 0.000000 0.000000 0.000000 0.000000 0.000000 0.000000 10.000000 
Spine1 0.000000 0.000000 0.000000 0.000000 0.000000 0.000000 10.000000 
L_Leg01 0.000000 0.000000 0.000000 0.000000 0.000000 0.000000 10.000000 
L_Leg02 0.000000 0.000000 0.000000 0.000000 0.000000 0.000000 10.000000 
L_Leg03 0.000000 0.000000 0.000000 0.000000 0.000000 0.000000 10.000000 
L_Foot 0.000000 0.000000 0.000000 0.000000 0.000000 0.000000 10.000000 
L_Toe1_01 0.000000 0.000000 0.000000 0.000000 0.000000 0.000000 10.000000 
L_Toe2_01 0.000000 0.000000 0.000000 0.000000 0.000000 0.000000 10.000000 
L_Toe3_01 0.000000 0.000000 0.000000 0.000000 0.000000 0.000000 10.000000 
planeAlignerLeft 0.000000 0.000000 0.000000 0.000000 0.000000 0.000000 10.000000 
L_Toe1_02 0.000000 0.000000 0.000000 0.000000 0.000000 0.000000 10.000000 
L_Toe1_03 0.000000 0.000000 0.000000 0.000000 0.000000 0.000000 10.000000 
L_Toe2_02 0.000000 0.000000 0.000000 0.000000 0.000000 0.000000 10.000000 
L_Toe2_03 0.000000 0.000000 0.000000 0.000000 0.000000 0.000000 10.000000 
L_Toe3_02 0.000000 0.000000 0.000000 0.000000 0.000000 0.000000 10.000000 
L_Toe3_03 0.000000 0.000000 0.000000 0.000000 0.000000 0.000000 10.000000 
planeLockWeightLeft 0.000000 0.000000 0.000000 0.000000 0.000000 0.000000 10.000000 
R_Leg01 0.000000 0.000000 0.000000 0.000000 0.000000 0.000000 10.000000 
R_Leg02 0.000000 0.000000 0.000000 0.000000 0.000000 0.000000 10.000000 
R_Leg03 0.000000 0.000000 0.000000 0.000000 0.000000 0.000000 10.000000 
R_Foot 0.000000 0.000000 0.000000 0.000000 0.000000 0.000000 10.000000 
planeAlignerRight 0.000000 0.000000 0.000000 0.000000 0.000000 0.000000 10.000000 
R_Toe1_01 0.000000 0.000000 0.000000 0.000000 0.000000 0.000000 10.000000 
R_Toe2_01 0.000000 0.000000 0.000000 0.000000 0.000000 0.000000 10.000000 
R_Toe3_01 0.000000 0.000000 0.000000 0.000000 0.000000 0.000000 10.000000 
planeLockWeightRight 0.000000 0.000000 0.000000 0.000000 0.000000 0.000000 10.000000 
R_Toe1_02 0.000000 0.000000 0.000000 0.000000 0.000000 0.000000 10.000000 
R_Toe1_03 0.000000 0.000000 0.000000 0.000000 0.000000 0.000000 10.000000 
R_Toe2_02 0.000000 0.000000 0.000000 0.000000 0.000000 0.000000 10.000000 
R_Toe2_03 0.000000 0.000000 0.000000 0.000000 0.000000 0.000000 10.000000 
R_Toe3_02 0.000000 0.000000 0.000000 0.000000 0.000000 0.000000 10.000000 
R_Toe3_03 0.000000 0.000000 0.000000 0.000000 0.000000 0.000000 10.000000 
Rear_Leg02 0.000000 0.000000 0.000000 0.000000 0.000000 0.000000 10.000000 
Rear_Leg03 0.000000 0.000000 0.000000 0.000000 0.000000 0.000000 10.000000 
Rear_Leg04 0.000000 0.000000 0.000000 0.000000 0.000000 0.000000 10.000000 
Rear_Foot 0.000000 0.000000 0.000000 0.000000 0.000000 0.000000 10.000000 
planeAlignerCenter 0.000000 0.000000 0.000000 0.000000 0.000000 0.000000 10.000000 
Rear_Toe1_01 0.000000 0.000000 0.000000 0.000000 0.000000 0.000000 10.000000 
Rear_Toe2_01 0.000000 0.000000 0.000000 0.000000 0.000000 0.000000 10.000000 
Rear_Toe3_01 0.000000 0.000000 0.000000 0.000000 0.000000 0.000000 10.000000 
planeLockWeightCenter 0.000000 0.000000 0.000000 0.000000 0.000000 0.000000 10.000000 
Rear_Toe1_02 0.000000 0.000000 0.000000 0.000000 0.000000 0.000000 10.000000 
Rear_Toe1_03 0.000000 0.000000 0.000000 0.000000 0.000000 0.000000 10.000000 
Rear_Toe2_02 0.000000 0.000000 0.000000 0.000000 0.000000 0.000000 10.000000 
Rear_Toe2_03 0.000000 0.000000 0.000000 0.000000 0.000000 0.000000 10.000000 
Rear_Toe3_02 0.000000 0.000000 0.000000 0.000000 0.000000 0.000000 10.000000 
Rear_Toe3_03 0.000000 0.000000 0.000000 0.000000 0.000000 0.000000 10.000000 
Back_Bone 0.000000 0.000000 0.000000 0.000000 0.000000 0.000000 10.000000 
Head 0.000000 0.000000 0.000000 0.000000 0.000000 0.000000 10.000000 
Motor_Bone 0.000000 0.000000 0.000000 0.000000 0.000000 0.000000 10.000000 
Ping_Mechanism 0.000000 0.000000 0.000000 0.000000 0.000000 0.000000 10.000000 
BN_LookIK 0.000000 0.000000 0.000000 0.000000 0.000000 0.000000 10.000000 
bottomMouth 0.000000 0.000000 0.000000 0.000000 0.000000 0.000000 10.000000 
L_Mouth01 0.000000 0.000000 0.000000 0.000000 0.000000 0.000000 10.000000 
L_mouthFront 0.000000 0.000000 0.000000 0.000000 0.000000 0.000000 10.000000 
mouthGun 0.000000 0.000000 0.000000 0.000000 0.000000 0.000000 10.000000 
R_Mouth01 0.000000 0.000000 0.000000 0.000000 0.000000 0.000000 10.000000 
R_mouthFront 0.000000 0.000000 0.000000 0.000000 0.000000 0.000000 10.000000 
TopMouth 0.000000 0.000000 0.000000 0.000000 0.000000 0.000000 10.000000 
weapon_bone 0.000000 0.000000 0.000000 0.000000 0.000000 0.000000 10.000000 
#Beginning of Data. Separated by tabs
#Fr	Tx	Ty	Tz	Rx	Ry	Rz	SF
[Pinger_Root]
36 0.000000 0.000000 0.000000 -0.000067 -0.000037 -57.643677 0.000000
37 0.000000 0.000000 0.000000 -0.000066 -0.000038 -59.974705 0.000000
38 0.000000 0.000000 0.000000 -0.000065 -0.000040 -62.307686 0.000000
[Pelvis]
36 306.407288 279.418701 4343.023926 -39.032234 -78.767776 -0.653910 4362.776367
37 306.645386 259.262817 4349.320313 -30.030987 -78.890106 -8.517286 4367.818359
38 290.126007 239.228745 4359.212402 -23.187845 -79.128235 -13.652382 4375.401367
[L_Hip]
36 5.766392 125.831482 872.656799 55.524830 -49.445030 -124.431442 881.701050
37 5.766392 125.831482 872.656799 66.327042 -54.602589 -135.467422 881.701050
38 5.766392 125.831482 872.656799 84.773117 -59.690334 -154.436096 881.701050
[R_Hip]
36 5.765438 125.836372 -872.654907 11.408972 48.934437 92.690392 881.699829
37 5.765438 125.836372 -872.654907 14.775660 54.845051 97.118355 881.699829
38 5.765438 125.836372 -872.654907 17.939474 57.739285 100.920074 881.699829
[Rear_Leg01]
36 -192.298416 -925.602966 -0.001907 162.067612 6.627095 -166.910324 945.367432
37 -192.298416 -925.602966 -0.001907 161.169449 7.778803 -165.253342 945.367432
38 -192.298416 -925.602966 -0.001907 161.035324 9.017562 -163.996048 945.367432
[Spine1]
36 290.604584 5.007505 0.000477 4.195740 -10.099674 18.611732 290.647736
37 290.604584 5.007505 0.000477 4.714211 -11.329819 19.925735 290.647736
38 290.604584 5.007505 0.000477 4.877719 -11.829808 21.016806 290.647736
[L_Leg01]
36 761.932007 -0.002384 -0.069261 53.959415 -20.024006 -35.029045 761.932068
37 761.932007 -0.002384 -0.069261 52.103703 -14.134471 -36.995148 761.932068
38 761.932007 -0.002384 -0.069261 51.343796 -14.480045 -37.456928 761.932068
[L_Leg02]
36 1441.140503 -0.000954 -0.000715 -1.974215 0.826601 -98.671761 1441.140503
37 1441.140503 -0.000954 -0.000715 -2.899405 1.151875 -101.162476 1441.140503
38 1441.140503 -0.000954 -0.000715 -3.936865 1.409863 -113.464508 1441.140503
[L_Leg03]
36 1686.963989 -0.000715 -0.000954 0.047016 -0.013615 97.537491 1686.963989
37 1686.963989 -0.000715 -0.000954 0.039815 -0.013815 99.431000 1686.963989
38 1686.963989 -0.000715 -0.000954 0.029360 -0.010307 102.711052 1686.963989
[L_Foot]
36 3041.570068 -30.715107 11.297464 -50.502483 56.167839 23.124338 3041.746094
37 3041.570068 -30.715107 11.297464 -54.150829 56.438370 22.255201 3041.746094
38 3041.570068 -30.715107 11.297464 -57.084606 56.777260 26.490879 3041.746094
[L_Toe1_01]
36 -188.216690 -224.732346 -21.137953 92.717789 -2.399139 -163.076630 293.899567
37 -188.216690 -224.732346 -21.137953 91.059669 -0.392442 -161.122696 293.899567
38 -188.216690 -224.732346 -21.137953 88.008095 -1.989316 -158.492935 293.899567
[L_Toe2_01]
36 200.746536 -219.926590 148.838394 -89.947212 -17.248652 -59.203335 332.896027
37 200.746536 -219.926590 148.838394 -89.272339 -11.691421 -64.870453 332.896027
38 200.746536 -219.926590 148.838394 -91.425400 -4.770302 -67.586411 332.896027
[L_Toe3_01]
36 188.832520 -219.859131 -191.078659 -101.754059 13.716677 -76.128098 347.140900
37 188.832520 -219.859131 -191.078659 -102.539604 14.628995 -78.722206 347.140900
38 188.832520 -219.859131 -191.078659 -105.413208 14.740381 -85.580444 347.140900
[planeAlignerLeft]
36 128.103424 -835.502380 7.711999 169.306686 -76.298271 89.968506 845.301270
37 152.131165 -825.825745 -24.082857 178.786392 -75.678169 80.671082 840.066711
38 165.271805 -785.342651 -57.502800 -163.041855 -72.859444 62.925339 804.601990
[L_Toe1_02]
36 413.761139 0.000477 0.000000 0.001388 -25.470106 0.001388 413.761139
37 413.761139 0.000477 0.000000 0.001406 -23.250834 0.001406 413.761139
38 413.761139 0.000477 0.000000 0.001424 -21.031540 0.001424 413.761139
[L_Toe1_03]
36 464.317322 0.000358 -0.000089 0.005088 63.325306 0.005088 464.317322
37 464.317322 0.000358 -0.000089 0.010565 77.244453 0.010565 464.317322
38 464.317322 0.000358 -0.000089 0.040525 86.680931 0.040525 464.317322
[L_Toe2_02]
36 342.235809 -0.000477 0.000238 -0.002494 -47.305737 -0.002494 342.235809
37 342.235809 -0.000477 0.000238 -0.002415 -58.218437 -0.002415 342.235809
38 342.235809 -0.000477 0.000238 0.001198 -66.740852 0.001198 342.235809
[L_Toe2_03]
36 420.210846 -0.000715 0.000000 0.006804 44.046505 -0.000792 420.210846
37 420.210846 -0.000715 0.000000 0.003856 58.413307 -0.001638 420.210846
38 420.210846 -0.000715 0.000000 -0.002071 72.780327 -0.005607 420.210846
[L_Toe3_02]
36 329.270111 0.000954 0.000000 -0.002455 -52.201572 -0.002455 329.270111
37 329.270111 0.000954 0.000000 -0.002458 -51.821804 -0.002458 329.270111
38 329.270111 0.000954 0.000000 -0.002418 -57.856510 -0.002418 329.270111
[L_Toe3_03]
36 439.137451 -0.001907 0.000954 0.006939 46.629997 -0.000587 439.137451
37 439.137451 -0.001907 0.000954 0.006914 46.177879 -0.000624 439.137451
38 439.137451 -0.001907 0.000954 -0.000012 53.824459 -0.003690 439.137451
[planeLockWeightLeft]
36 999.999023 0.098267 0.076141 -0.011826 -0.004376 0.005620 999.999023
37 843.750671 0.098267 0.076065 -0.011826 -0.004376 0.005620 843.750671
38 500.002258 0.098267 0.076065 -0.011826 -0.004376 0.005620 500.002258
[R_Leg01]
36 761.455627 -0.001907 -0.000358 125.763535 1.931248 47.364784 761.455688
37 761.455627 -0.001907 -0.000358 119.792137 -4.599962 45.919064 761.455688
38 761.455627 -0.001907 -0.000358 116.513657 -7.715940 45.290024 761.455688
[R_Leg02]
36 1441.140625 0.000000 -0.000238 -0.823128 -0.068461 -104.036163 1441.140625
37 1441.140625 0.000000 -0.000238 -0.894049 -0.096475 -106.029938 1441.140625
38 1441.140625 0.000000 -0.000238 -0.892003 -0.086083 -106.091957 1441.140625
[R_Leg03]
36 1686.963989 0.000954 0.001431 0.075847 -0.043435 131.179825 1686.963989
37 1686.963989 0.000954 0.001431 0.080224 -0.041635 131.527191 1686.963989
38 1686.963989 0.000954 0.001431 0.075860 -0.043413 131.147232 1686.963989
[R_Foot]
36 3041.560059 -30.531288 -11.204481 -3.149518 -24.323267 43.726231 3041.734131
37 3041.560059 -30.531288 -11.204481 -3.467106 -24.230818 43.300270 3041.734131
38 3041.560059 -30.531288 -11.204481 -3.320197 -24.129053 42.490971 3041.734131
[planeAlignerRight]
36 -126.637024 -495.400696 -328.056793 -34.235100 -69.625977 -66.549644 607.519592
37 -126.639587 -500.660553 -320.251129 -35.356781 -70.486275 -65.496231 607.667114
38 -126.642151 -505.920349 -312.445435 -36.577129 -71.339035 -64.343979 607.960327
[R_Toe1_01]
36 -188.383347 -224.864899 21.052242 75.045555 -0.173410 -177.041275 294.101532
37 -188.383347 -224.864899 21.052242 75.978424 -0.400339 -177.075851 294.101532
38 -188.383347 -224.864899 21.052242 76.911255 -0.626627 -177.114105 294.101532
[R_Toe2_01]
36 200.637817 -220.002121 -148.787384 -88.591866 36.500259 -53.977692 332.857574
37 200.637817 -220.002121 -148.787384 -89.230118 35.521675 -54.423138 332.857574
38 200.637817 -220.002121 -148.787384 -89.851433 34.539288 -54.849964 332.857574
[R_Toe3_01]
36 188.606735 -220.092957 191.126343 -72.779091 -7.596856 -69.813332 347.192566
37 188.606735 -220.092957 191.126343 -73.021545 -8.677434 -69.600471 347.192566
38 188.606735 -220.092957 191.126343 -73.268738 -9.756791 -69.382370 347.192566
[planeLockWeightRight]
36 999.999695 -0.000183 0.075876 -0.011823 -0.004379 -0.000027 999.999695
37 999.999634 -0.000174 0.075878 -0.011823 -0.004379 -0.000027 999.999634
38 999.999634 -0.000166 0.075881 -0.011823 -0.004379 -0.000027 999.999634
[R_Toe1_02]
36 413.762085 0.000477 -0.000119 0.001397 -24.363411 0.001397 413.762085
37 413.762085 0.000477 -0.000119 0.001397 -24.358036 0.001397 413.762085
38 413.762085 0.000477 -0.000119 0.001397 -24.352659 0.001397 413.762085
[R_Toe1_03]
36 464.317810 0.000000 0.001088 0.007606 72.247704 0.007606 464.317810
37 464.317810 0.000000 0.001088 0.007605 72.244232 0.007605 464.317810
38 464.317810 0.000000 0.001088 0.007603 72.240723 0.007603 464.317810
[R_Toe2_02]
36 342.234741 -0.000954 0.000238 0.001191 -70.364731 0.001191 342.234741
37 342.234741 -0.000954 0.000238 0.001191 -70.440018 0.001191 342.234741
38 342.234741 -0.000954 0.000238 0.001191 -70.515289 0.001191 342.234741
[R_Toe2_03]
36 420.210846 0.000715 -0.000268 0.014199 80.517509 0.014199 420.210846
37 420.210846 0.000715 -0.000268 0.014546 80.743919 0.014546 420.210846
38 420.210846 0.000715 -0.000268 0.014910 80.970322 0.014910 420.210846
[R_Toe3_02]
36 329.270355 -0.000477 -0.000954 0.001180 -77.905304 0.001180 329.270355
37 329.270355 -0.000477 -0.000954 0.001180 -77.996819 0.001180 329.270355
38 329.270355 -0.000477 -0.000954 0.001180 -78.088387 0.001180 329.270355
[R_Toe3_03]
36 439.137939 0.000238 0.001431 -179.976746 87.366409 -179.973251 439.137939
37 439.137939 0.000238 0.001431 -179.979370 87.056625 -179.975876 439.137939
38 439.137939 0.000238 0.001431 -179.981506 86.746346 -179.978012 439.137939
[Rear_Leg02]
36 1162.777710 -0.029802 0.005960 2.697143 -5.519650 -138.923752 1162.777710
37 1162.777710 -0.029802 0.005960 3.296430 -6.625064 -139.506775 1162.777710
38 1162.777710 -0.029802 0.005960 4.280853 -6.869627 -145.284760 1162.777710
[Rear_Leg03]
36 607.192505 -0.013351 -0.073195 0.010430 -0.005232 69.635559 607.192505
37 607.192505 -0.013351 -0.073195 0.010422 -0.005247 69.804306 607.192505
38 607.192505 -0.013351 -0.073195 0.010342 -0.005403 71.526009 607.192505
[Rear_Leg04]
36 995.874512 -0.020504 -0.011921 -0.040566 -0.017983 69.545265 995.874573
37 995.874512 -0.020504 -0.011921 -0.040624 -0.017851 69.918938 995.874573
38 995.874512 -0.020504 -0.011921 -0.041239 -0.016381 74.032684 995.874573
[Rear_Foot]
36 3096.176270 -0.067472 -0.041425 -83.764084 84.563179 102.195023 3096.176270
37 3096.176270 -0.067472 -0.041425 -97.013008 83.446495 88.687294 3096.176270
38 3096.176270 -0.067472 -0.041425 -107.421265 82.598854 78.527245 3096.176270
[planeAlignerCenter]
36 -143.965729 -14.794000 -687.334717 13.992973 -9.844961 169.851425 702.405884
37 -135.247559 -27.343958 -677.689087 14.133414 -9.130642 169.680786 691.593872
38 -79.766090 -14.795323 -769.371216 13.568568 -7.501170 169.911209 773.636597
[Rear_Toe1_01]
36 0.653352 83.966492 -371.173737 15.110609 36.861259 92.075829 380.553192
37 0.653352 83.966492 -371.173737 13.899289 36.075439 90.809227 380.553192
38 0.653352 83.966492 -371.173737 10.869924 42.565434 87.858467 380.553192
[Rear_Toe2_01]
36 178.200760 -294.826019 -362.060547 -20.894449 32.765766 -90.823380 499.765686
37 178.200760 -294.826019 -362.060547 -19.945002 31.610088 -90.312195 499.765686
38 178.200760 -294.826019 -362.060547 -17.578590 36.198822 -86.443810 499.765686
[Rear_Toe3_01]
36 -153.359680 -308.780914 -362.060852 -5.412024 20.684837 -132.797226 499.952881
37 -153.359680 -308.780914 -362.060852 -4.549181 20.241585 -132.105392 499.952881
38 -153.359680 -308.780914 -362.060852 -4.331256 27.255890 -130.450394 499.952881
[planeLockWeightCenter]
36 1000.000244 0.000610 0.076101 -0.011814 -0.004373 -0.000015 1000.000244
37 1000.000244 0.000610 0.076108 -0.011814 -0.004373 -0.000015 1000.000244
38 1000.000244 0.000610 0.076114 -0.011814 -0.004373 -0.000015 1000.000244
[Rear_Toe1_02]
36 379.707825 0.194073 0.000477 0.001333 -33.428509 0.001333 379.707855
37 379.707825 0.194073 0.000477 0.001332 -33.511135 0.001332 379.707855
38 379.707825 0.194073 0.000477 -0.000253 -31.825865 0.006940 379.707855
[Rear_Toe1_03]
36 500.129700 0.165701 0.000119 -0.004423 64.766174 -0.000840 500.129761
37 500.129700 0.165701 0.000119 -0.004843 68.369232 -0.001283 500.129761
38 500.129700 0.165701 0.000119 -0.000023 52.673931 0.007358 500.129761
[Rear_Toe2_02]
36 340.494507 0.000238 -0.000954 0.001189 -71.369667 0.001189 340.494507
37 340.494507 0.000238 -0.000954 0.001191 -70.192711 0.001191 340.494507
38 340.494507 0.000238 -0.000954 0.001195 -68.180038 0.001195 340.494507
[Rear_Toe2_03]
36 433.103577 0.000000 0.000238 0.007582 72.191879 0.007582 433.103546
37 433.103577 0.000000 0.000238 0.006864 70.311661 0.006864 433.103546
38 433.103577 0.000000 0.000238 0.005964 67.302475 0.005964 433.103546
[Rear_Toe3_02]
36 340.494141 -0.000358 -0.000477 -0.002402 -60.581547 -0.002402 340.494171
37 340.494141 -0.000358 -0.000477 -0.002407 -59.564537 -0.002407 340.494171
38 340.494141 -0.000358 -0.000477 0.007525 -65.113922 -0.008703 340.494171
[Rear_Toe3_03]
36 433.103577 0.001431 -0.000238 -0.000191 56.862728 -0.003840 433.103546
37 433.103577 0.001431 -0.000238 -0.000110 55.539364 -0.003771 433.103546
38 433.103577 0.001431 -0.000238 -0.000656 62.918987 -0.004253 433.103546
[Back_Bone]
36 1312.175781 -701.934692 0.000954 0.000023 -0.000007 -85.606667 1488.125488
37 1312.175781 -701.934692 0.000954 0.000023 -0.000007 -85.606667 1488.125488
38 1312.175781 -701.934692 0.000954 0.000023 -0.000007 -85.606667 1488.125488
[Head]
36 1406.159424 809.709290 0.001431 0.000008 0.000003 7.767519 1622.625488
37 1406.159424 809.709290 0.001431 0.000008 0.000003 7.767519 1622.625488
38 1406.159424 809.709290 0.001431 0.000008 0.000003 7.767519 1622.625488
[Motor_Bone]
36 1158.364380 -417.834747 0.000477 -0.098113 2.210377 -105.788620 1231.419434
37 1158.364380 -417.834747 0.000477 -0.096100 4.345395 -105.661324 1231.419434
38 1158.364380 -417.834747 0.000477 -0.089310 6.479667 -105.533531 1231.419434
[Ping_Mechanism]
36 1243.260132 -442.319916 49.264450 0.000103 -0.000053 82.120995 1320.518677
37 1235.220825 -437.882385 53.092716 0.000103 -0.000053 82.120995 1311.613647
38 1228.936401 -434.618866 54.077694 0.000103 -0.000053 82.120995 1304.646606
[BN_LookIK]
36 193.241119 1380.371704 -0.002861 0.000000 89.965736 -31.038179 1393.832153
37 193.241119 1380.371704 -0.002861 0.000000 89.965736 -31.038179 1393.832153
38 193.241119 1380.371704 -0.002861 0.000000 89.965736 -31.038179 1393.832153
[bottomMouth]
36 -435.092926 615.759399 -0.000954 -0.000022 0.000016 73.527184 753.966492
37 -435.092926 615.759399 -0.000954 -0.000022 0.000016 73.527184 753.966492
38 -435.092926 615.759399 -0.000954 -0.000022 0.000016 73.527184 753.966492
[L_Mouth01]
36 554.440979 7.658243 838.222046 150.204178 23.759130 109.605339 1005.027161
37 554.440979 7.658243 838.222046 150.204178 23.759130 109.605339 1005.027161
38 554.440979 7.658243 838.222046 150.204178 23.759130 109.605339 1005.027161
[L_mouthFront]
36 551.629089 934.514771 339.150421 0.000081 2.804060 79.119301 1136.941284
37 551.629089 934.514771 339.150421 0.000081 2.804060 79.119301 1136.941284
38 551.629089 934.514771 339.150421 0.000081 2.804060 79.119301 1136.941284
[mouthGun]
36 55.332661 1627.420898 0.000000 0.000023 0.000009 -11.038128 1628.361328
37 55.332661 1627.420898 0.000000 0.000023 0.000009 -11.038128 1628.361328
38 55.332661 1627.420898 0.000000 0.000023 0.000009 -11.038128 1628.361328
[R_Mouth01]
36 554.442383 7.659197 -838.223938 29.795891 -23.759109 109.605331 1005.029541
37 554.442383 7.659197 -838.223938 29.795891 -23.759109 109.605331 1005.029541
38 554.442383 7.659197 -838.223938 29.795891 -23.759109 109.605331 1005.029541
[R_mouthFront]
36 551.629089 934.514282 -339.151367 0.000029 -2.803930 79.119133 1136.941162
37 551.629089 934.514282 -339.151367 0.000029 -2.803930 79.119133 1136.941162
38 551.629089 934.514282 -339.151367 0.000029 -2.803930 79.119133 1136.941162
[TopMouth]
36 461.269867 -56.106091 -0.008583 -0.000059 -0.000268 92.025169 464.669525
37 461.269867 -56.106091 -0.008583 -0.000059 -0.000268 92.025169 464.669525
38 461.269867 -56.106091 -0.008583 -0.000059 -0.000268 92.025169 464.669525
[weapon_bone]
36 -987.239868 1448.372803 0.001431 0.000000 89.965736 -31.038221 1752.833740
37 -987.239868 1448.372803 0.001431 0.000000 89.965736 -31.038221 1752.833740
38 -987.239868 1448.372803 0.001431 0.000000 89.965736 -31.038221 1752.833740
